<svg width="879" height="413" xmlns="http://www.w3.org/2000/svg"><title>ROOT canvas</title><path d="M0,0H879V413H0Z" style="pointer-events: visiblefill; fill: rgb(255, 255, 255);"></path><g><g transform="translate(88,41)" x="88" y="41" width="703" height="330"><title></title><path d="M0,0H703V330H0Z" pointer-events="visibleFill" style="fill: rgb(255, 255, 255); stroke: rgb(0, 0, 0); stroke-width: 1;"></path><svg x="0" y="0" overflow="hidden" width="703" height="330" viewBox="0 0 703 330" style="pointer-events: visiblefill;"><g style="cursor: move;"><g transform="translate(59,16)"><path d="M0,2h0v-4h0z" style="stroke: none; fill: none; pointer-events: visiblefill;"></path><path d="M0,0V2m3,0h-6M0,0V-2m3,0h-6" style="stroke: rgb(0, 0, 0); stroke-width: 1; fill: none;"></path></g><g transform="translate(176,148)"><path d="M0,1h0v-2h0z" style="stroke: none; fill: none; pointer-events: visiblefill;"></path><path d="M0,0V1m3,0h-6M0,0V-1m3,0h-6" style="stroke: rgb(0, 0, 0); stroke-width: 1; fill: none;"></path></g><g transform="translate(293,154)"><path d="M0,1h0v-2h0z" style="stroke: none; fill: none; pointer-events: visiblefill;"></path><path d="M0,0V1m3,0h-6M0,0V-1m3,0h-6" style="stroke: rgb(0, 0, 0); stroke-width: 1; fill: none;"></path></g><g transform="translate(410,154)"><path d="M0,1h0v-2h0z" style="stroke: none; fill: none; pointer-events: visiblefill;"></path><path d="M0,0V1m3,0h-6M0,0V-1m3,0h-6" style="stroke: rgb(0, 0, 0); stroke-width: 1; fill: none;"></path></g><g transform="translate(527,155)"><path d="M0,1h0v-2h0z" style="stroke: none; fill: none; pointer-events: visiblefill;"></path><path d="M0,0V1m3,0h-6M0,0V-1m3,0h-6" style="stroke: rgb(0, 0, 0); stroke-width: 1; fill: none;"></path></g><g transform="translate(644,159)"><path d="M0,1h0v-2h0z" style="stroke: none; fill: none; pointer-events: visiblefill;"></path><path d="M0,0V1m3,0h-6M0,0V-1m3,0h-6" style="stroke: rgb(0, 0, 0); stroke-width: 1; fill: none;"></path></g><path d="M59,12l3,4l-3,4l-3,-4zM176,144l3,4l-3,4l-3,-4zM293,150l3,4l-3,4l-3,-4zM410,150l3,4l-3,4l-3,-4zM527,151l3,4l-3,4l-3,-4zM644,155l3,4l-3,4l-3,-4z" style="stroke: rgb(0, 0, 0); fill: rgb(0, 0, 0);"></path></g></svg><g><g transform="translate(0,330)"><path d="M0,0h703" style="stroke: rgb(0, 0, 0); stroke-width: 1;"></path><path d="M117,-12v12m117,-12v12m118,-12v12m117,-12v12m117,-12v12" style="stroke: rgb(0, 0, 0); stroke-width: 1;"></path><g font-family="Arial" font-size="17" xml:space="preserve" font-weight="bold"><text fill="rgb(0,0,0)" text-anchor="middle" dy=".8em" transform="translate(59,4)">TS_10V</text><text fill="rgb(0,0,0)" text-anchor="middle" dy=".8em" transform="translate(176,4)">TS_14V</text><text fill="rgb(0,0,0)" text-anchor="middle" dy=".8em" transform="translate(293,4)">TS_18V</text><text fill="rgb(0,0,0)" text-anchor="middle" dy=".8em" transform="translate(411,4)">TS_20V</text><text fill="rgb(0,0,0)" text-anchor="middle" dy=".8em" transform="translate(528,4)">TS_22V</text><text fill="rgb(0,0,0)" text-anchor="middle" dy=".8em" transform="translate(645,4)">TS_26V</text></g><rect x="0" y="0" width="703" height="20" style="opacity: 0; cursor: crosshair;"></rect></g><g><path d="M0,0v330" style="stroke: rgb(0, 0, 0); stroke-width: 1;"></path><path d="M26,330h-26m13,-9h-13m13,-9h-13m13,-9h-13m13,-10h-13m26,-9h-26m13,-9h-13m13,-9h-13m13,-9h-13m13,-9h-13m26,-9h-26m13,-10h-13m13,-9h-13m13,-9h-13m13,-9h-13m26,-9h-26m13,-9h-13m13,-10h-13m13,-9h-13m13,-9h-13m26,-9h-26m13,-9h-13m13,-9h-13m13,-9h-13m13,-10h-13m26,-9h-26m13,-9h-13m13,-9h-13m13,-9h-13m13,-9h-13m26,-9h-26m13,-10h-13m13,-9h-13m13,-9h-13m13,-9h-13m26,-9h-26m13,-9h-13" style="stroke: rgb(0, 0, 0); stroke-width: 1;"></path><g font-family="Arial" font-size="17" xml:space="preserve" font-weight="bold"><text fill="rgb(0,0,0)" text-anchor="end" dominant-baseline="middle" transform="translate(-2,330)">0</text><text fill="rgb(0,0,0)" text-anchor="end" dominant-baseline="middle" transform="translate(-2,284)">5</text><text fill="rgb(0,0,0)" text-anchor="end" dominant-baseline="middle" transform="translate(-2,239)">10</text><text fill="rgb(0,0,0)" text-anchor="end" dominant-baseline="middle" transform="translate(-2,193)">15</text><text fill="rgb(0,0,0)" text-anchor="end" dominant-baseline="middle" transform="translate(-2,147)">20</text><text fill="rgb(0,0,0)" text-anchor="end" dominant-baseline="middle" transform="translate(-2,101)">25</text><text fill="rgb(0,0,0)" text-anchor="end" dominant-baseline="middle" transform="translate(-2,56)">30</text><text fill="rgb(0,0,0)" text-anchor="end" dominant-baseline="middle" transform="translate(-2,10)">35</text><g transform="translate(5,-7)"><text fill="rgb(0,0,0)" font-size="17">×10</text><text fill="rgb(0,0,0)" font-size="10" transform="translate(28,-8)">3</text></g></g><rect x="-21" y="0" width="21" height="330" style="opacity: 0; cursor: crosshair;"></rect><g font-family="Arial" font-size="17" xml:space="preserve" font-weight="bold" style="cursor: move;" transform="translate(-56,0)"><g transform=" rotate(270) translate(-130,6)"><text fill="rgb(0,0,0)" font-size="17">#Hits in channel</text></g></g></g></g><path d="M2,2h15v-5h-20v20h5Z" style="opacity: 0; cursor: nw-resize;"></path><path d="M701,2h-15v-5h20v20h-5 Z" style="opacity: 0; cursor: ne-resize;"></path><path d="M2,328h15v5h-20v-20h5Z" style="opacity: 0; cursor: sw-resize;"></path><path d="M701,328h-15v5h20v-20h-5Z" style="opacity: 0; cursor: se-resize;"></path><path d="M-3,18h5v294h-5Z" style="opacity: 0; cursor: w-resize;"></path><path d="M706,18h-5v294h5Z" style="opacity: 0; cursor: e-resize;"></path><path d="M18,-3v5h667v-5Z" style="opacity: 0; cursor: n-resize;"></path><path d="M18,333v-5h667v5Z" style="opacity: 0; cursor: s-resize;"></path></g><g transform="translate(88,2)" font-family="Arial" font-size="21" xml:space="preserve" x="88" y="2" width="703" height="27" style="cursor: move;"><path d="M0,0H703V27H0Z" style="fill: none; pointer-events: visiblefill;"></path><text fill="rgb(0,0,0)" text-anchor="middle" dy=".8em" transform="translate(352)">Event Count</text><path d="M2,2h15v-5h-20v20h5Z" style="opacity: 0; cursor: nw-resize;"></path><path d="M701,2h-15v-5h20v20h-5 Z" style="opacity: 0; cursor: ne-resize;"></path><path d="M2,25h15v5h-20v-20h5Z" style="opacity: 0; cursor: sw-resize;"></path><path d="M701,25h-15v5h20v-20h-5Z" style="opacity: 0; cursor: se-resize;"></path><path d="M-3,18h5v0h-5Z" style="opacity: 0; cursor: w-resize;"></path><path d="M706,18h-5v0h5Z" style="opacity: 0; cursor: e-resize;"></path><path d="M18,-3v5h667v-5Z" style="opacity: 0; cursor: n-resize;"></path><path d="M18,30v-5h667v5Z" style="opacity: 0; cursor: s-resize;"></path></g></g></svg>